<?xml version="1.0" encoding="utf-8"?>
<!-- Generator: Adobe Illustrator 28.0.0, SVG Export Plug-In . SVG Version: 6.00 Build 0)  -->
<svg version="1.1" id="Layer_1" xmlns="http://www.w3.org/2000/svg" xmlns:xlink="http://www.w3.org/1999/xlink" x="0px" y="0px"
	 viewBox="0 0 512 512" style="enable-background:new 0 0 512 512;" xml:space="preserve">
<style type="text/css">
	.st0{fill:#00E0FF;}
</style>
<g>
	<g>
		<path class="st0" d="M200.68,256.37c3.85-2.19,6.93-4.91,9.18-8.12c2.55-3.63,3.9-7.97,3.86-12.41c0-8.56-3.2-15.25-9.51-19.86
			c-6.23-4.57-14.81-6.88-25.5-6.88h-38.64v99.17h40.19c11.25,0,20.27-2.61,26.78-7.78c6.57-5.21,9.9-12.5,9.9-21.68
			c0-5.59-1.57-10.4-4.66-14.29C209.53,261.03,205.63,258.3,200.68,256.37z M160.99,226.97h16.05c5.04,0,8.83,0.97,11.3,2.9
			c2.44,1.89,3.63,4.38,3.63,7.61c0,3.23-1.19,5.85-3.63,7.75c-2.47,1.92-6.27,2.89-11.3,2.89h-16.05
			C160.99,248.11,160.99,226.97,160.99,226.97z M191.21,287.03c-2.78,2.23-7.03,3.36-12.63,3.36h-17.59v-24.27h17.6
			c5.59,0,9.84,1.09,12.64,3.23c2.77,2.14,4.11,4.96,4.11,8.63C195.34,281.85,193.99,284.81,191.21,287.03z M245.21,234.1h-21.06
			v74.16h21.05L245.21,234.1L245.21,234.1z M453.15,245.26c-3.37-4-7.62-7.16-12.41-9.25c-4.9-2.17-10.41-3.28-16.37-3.28
			c-7.31,0-13.9,1.66-19.6,4.93c-5.64,3.21-10.3,7.89-13.47,13.55c-3.24,5.72-4.87,12.34-4.87,19.69c0,7.36,1.59,14.42,4.72,20.22
			c3.06,5.73,7.72,10.45,13.42,13.57c5.75,3.18,12.51,4.79,20.08,4.79c9.3,0,17.18-2.34,23.46-6.95
			c6.04-4.44,10.19-10.7,12.46-18.54h-21.2c-1.11,2.67-2.68,4.94-4.94,6.54c-2.66,1.89-6.09,2.84-10.21,2.84
			c-3.57,0-6.63-0.86-9.1-2.57c-2.47-1.71-4.36-4.24-5.6-7.53c-0.79-2.16-1.33-4.41-1.59-6.69h52.99l0.1-0.66
			c0.94-5.98,0.71-11.65-0.72-16.84C458.96,254.01,456.52,249.29,453.15,245.26L453.15,245.26z M408.28,262.86
			c0.32-1.54,0.76-3.05,1.32-4.51c1.29-3.33,3.16-5.89,5.55-7.6c2.38-1.71,5.34-2.57,8.8-2.57c4.34,0,7.9,1.41,10.59,4.18
			c2.55,2.63,3.99,6.23,4.3,10.5L408.28,262.86L408.28,262.86z M245.65,209.09h-21.93v17.88h21.93V209.09z M360.94,242.52
			c-2.37-2.9-5.34-5.25-8.7-6.91c-3.93-1.9-8.53-2.87-13.66-2.87c-6.29,0-11.93,1.56-16.75,4.61c-4.82,3.06-8.65,7.37-11.36,12.82
			c-2.71,5.44-4.08,11.82-4.08,18.98c0,7.16,1.44,13.17,4.29,18.64c2.86,5.49,6.82,9.87,11.78,13.01
			c4.96,3.15,10.62,4.75,16.83,4.75c4.68,0,8.96-1.01,12.71-3.02c2.89-1.52,5.42-3.65,7.41-6.24v8.07c0,5.01-1.31,8.85-3.9,11.41
			c-2.59,2.56-6.54,3.85-11.73,3.85c-4.47,0-7.99-1.01-10.45-3.02c-2.01-1.64-3.77-3.79-4.18-8.34h-20.3
			c0.19,6.37,2.06,10.66,4.7,14.43c2.96,4.21,7.12,7.51,12.39,9.78c5.21,2.25,11.26,3.39,17.97,3.39c11.27,0,20.25-2.83,26.67-8.42
			c6.46-5.61,9.73-13.47,9.73-23.35V234.1h-19.37L360.94,242.52L360.94,242.52z M357.23,279c-1.22,2.63-3.17,4.85-5.61,6.41
			c-2.39,1.49-5.27,2.26-8.56,2.26c-4.77,0-8.48-1.63-11.33-4.96c-2.85-3.33-4.3-7.89-4.3-13.57c0-5.68,1.44-10.24,4.29-13.57
			c2.83-3.29,6.64-4.96,11.33-4.96c4.7,0,8.84,1.69,11.76,5.04c2.94,3.38,4.43,7.96,4.43,13.62
			C359.25,272.95,358.57,276.21,357.23,279L357.23,279z M512.01,251.84v-17.74h-15.2v-25.02H475.9v25.02h-12.98v17.74h12.98v29.03
			c0,16.14,3.18,28,23,27.63l12.44-0.25v-16.62h-6.17c-8.81,0-8.32-5.13-8.32-14.67l-0.03-25.12L512.01,251.84L512.01,251.84z
			 M301.26,251.84v-17.74h-15.2v-25.02h-20.91v25.02h-12.98v17.74h12.97v29.03c0,16.14,3.18,28,23,27.63l12.44-0.25v-16.62h-6.16
			c-8.81,0-8.32-5.13-8.32-14.67l-0.03-25.12L301.26,251.84L301.26,251.84z M52.49,226.97h31.58l32.31,32.1
			c2.1,2.09,2.11,5.49,0.02,7.59l-41.43,41.64H42.44l9.84-9.56l36.11-35.88l-35.65-35.88"/>
		<path class="st0" d="M65.47,262.76H33.9l-32.31-32.1c-2.1-2.09-2.11-5.48-0.03-7.58c0,0,0,0,0.01-0.01L43,181.44h32.53L65.7,191
			l-36.11,35.88l35.66,35.88"/>
	</g>
</g>
</svg>
